<?xml version="1.0" standalone="no"?><!DOCTYPE svg PUBLIC "-//W3C//DTD SVG 1.1//EN" "http://www.w3.org/Graphics/SVG/1.1/DTD/svg11.dtd"><svg t="1640052365721" class="icon" viewBox="0 0 1161 1024" version="1.1" xmlns="http://www.w3.org/2000/svg" p-id="2601" id="mx_n_1640052365722" xmlns:xlink="http://www.w3.org/1999/xlink" width="226.7578125" height="200"><defs><style type="text/css"></style></defs><path d="M720.760327 18.555862h315.587305s106.971515-13.393808 106.971515 178.694233h-442.789481" fill="#E8D1B7" p-id="2602"></path><path d="M1143.319147 215.604063h-442.789481a18.353968 18.353968 0 0 1 0-36.707936h424.073022c-2.390604-59.297082-16.647049-102.236191-41.580915-124.806983-21.405315-19.372613-43.677856-17.390385-44.618497-17.294026a14.729059 14.729059 0 0 1-2.060232 0.114712H720.760327a18.353968 18.353968 0 0 1 0-36.707936h314.807261c7.451711-0.573562 40.442969-1.271012 71.034445 25.727674 36.54275 32.25251 55.071081 89.893147 55.071082 171.315939a18.353968 18.353968 0 0 1-18.353968 18.358556z" fill="#6E6E96" p-id="2603"></path><path d="M1131.37989 89.388413h-204.064005c0.009177 0 78.119077-159.454686 204.064005 0z" fill="#6E6E96" opacity=".15" p-id="2604"></path><path d="M452.145416 1005.444138H136.558111S18.353968 1018.842535 18.353968 826.759082h454.008344" fill="#E8D1B7" p-id="2605"></path><path d="M131.932911 1023.977058c-13.806773 0-46.467659-3.138529-76.113906-29.614128C18.780698 961.289079 0 904.891924 0 826.754493a18.353968 18.353968 0 0 1 18.353968-18.353968h454.008344a18.353968 18.353968 0 0 1 0 36.707936H37.111724c2.569556 56.911067 17.358265 98.83153 43.154767 121.874937 25.484485 22.75892 53.937724 20.244427 54.22221 20.221484 0.688274-0.078004 1.376548-0.114712 2.06941-0.114712h315.587305a18.353968 18.353968 0 0 1 0 36.707936H137.315212c-1.147123 0.082593-2.977931 0.178951-5.382301 0.178952z" fill="#6E6E96" p-id="2606"></path><path d="M931.752956 197.254684v674.159602c0 73.714124-60.311139 134.025264-134.011498 134.025264H136.558111s120.61769 0 120.61769-134.025264V197.254684c0-192.964444 150.195109-177.30392 150.19511-177.303921h643.802139c-114.147916 0-119.420093 177.30392-119.420094 177.303921z" fill="#FFF6C9" p-id="2607"></path><path d="M257.175801 912.885077v-41.457025c0 134.016087-120.61769 134.016087-120.61769 134.016086h661.183347c73.700359 0 134.011498-60.311139 134.011498-134.016086v41.457025H257.175801z" fill="#6E6E96" opacity=".1" p-id="2608"></path><path d="M531.705279 235.853079a18.308083 18.308083 0 0 1-12.976255-5.373125l-54.749887-54.745298a18.363145 18.363145 0 0 1-0.004589-25.961688l54.749887-54.749887a18.353968 18.353968 0 0 1 25.957099 25.9571l-41.773631 41.773631 41.769043 41.764455a18.353968 18.353968 0 0 1-12.971667 31.334812zM685.410585 235.853079a18.353968 18.353968 0 0 1-12.976256-31.334812l41.773632-41.764455-41.773632-41.773631a18.353968 18.353968 0 0 1 25.952511-25.9571l54.754476 54.749887a18.363145 18.363145 0 0 1 0 25.961688L698.38684 230.479954a18.308083 18.308083 0 0 1-12.976255 5.373125zM598.362303 249.925984a18.353968 18.353968 0 0 1-17.959358-22.226656l30.499706-141.554979a18.335614 18.335614 0 0 1 21.809103-14.072905 18.353968 18.353968 0 0 1 14.072905 21.809103l-30.499706 141.554979a18.358557 18.358557 0 0 1-17.92265 14.490458z" fill="#6E6E96" opacity=".44" p-id="2609"></path><path d="M373.273826 372.434132H326.764871a18.353968 18.353968 0 0 1 0-36.707936H373.273826a18.353968 18.353968 0 0 1 0 36.707936z" fill="#FFC4FD" p-id="2610"></path><path d="M666.501409 372.434132H452.145416a18.353968 18.353968 0 0 1 0-36.707936h214.355993a18.353968 18.353968 0 0 1 0 36.707936z" fill="#F0D2B4" p-id="2611"></path><path d="M825.864326 372.434132h-93.008734a18.353968 18.353968 0 0 1 0-36.707936h93.008734a18.353968 18.353968 0 0 1 0 36.707936z" fill="#6E6E96" opacity=".3" p-id="2612"></path><path d="M468.324439 435.12211H383.386863a18.353968 18.353968 0 0 1 0-36.707936h84.937576a18.353968 18.353968 0 0 1 0 36.707936zM513.823926 486.682995H416.758965a18.353968 18.353968 0 0 1 0-36.707936h97.064961a18.353968 18.353968 0 0 1 0 36.707936z" fill="#FFC4FD" p-id="2613"></path><path d="M721.099876 486.682995h-147.625554a18.353968 18.353968 0 0 1 0-36.707936h147.625554a18.353968 18.353968 0 0 1 0 36.707936z" fill="#6E6E96" opacity=".3" p-id="2614"></path><path d="M710.991428 567.807534H622.015979a18.353968 18.353968 0 0 1 0-36.707936h88.975449a18.353968 18.353968 0 0 1 0 36.707936z" fill="#90ABC4" p-id="2615"></path><path d="M561.333172 567.807534h-62.678801a18.353968 18.353968 0 0 1 0-36.707936h62.678801a18.353968 18.353968 0 0 1 0 36.707936z" fill="#F0D2B4" p-id="2616"></path><path d="M874.552815 567.807534h-90.994386a18.353968 18.353968 0 0 1 0-36.707936h90.994386a18.353968 18.353968 0 0 1 0 36.707936z" fill="#6E6E96" opacity=".3" p-id="2617"></path><path d="M660.435423 616.344603h-38.419444a18.353968 18.353968 0 0 1 0-36.707936h38.419444a18.353968 18.353968 0 0 1 0 36.707936z" fill="#90ABC4" p-id="2618"></path><path d="M561.333172 616.344603h-62.678801a18.353968 18.353968 0 0 1 0-36.707936h62.678801a18.353968 18.353968 0 0 1 0 36.707936z" fill="#F0D2B4" p-id="2619"></path><path d="M787.600891 616.344603h-56.621992a18.353968 18.353968 0 0 1 0-36.707936h56.621992a18.353968 18.353968 0 0 1 0 36.707936z" fill="#6E6E96" opacity=".3" p-id="2620"></path><path d="M708.981668 677.004468H622.015979a18.353968 18.353968 0 0 1 0-36.707937h86.965689a18.353968 18.353968 0 0 1 0 36.707937z" fill="#90ABC4" p-id="2621"></path><path d="M569.43186 677.004468h-70.777489a18.353968 18.353968 0 0 1 0-36.707937H569.43186a18.353968 18.353968 0 0 1 0 36.707937z" fill="#F0D2B4" p-id="2622"></path><path d="M815.907298 677.004468h-36.395919a18.353968 18.353968 0 0 1 0-36.707937h36.395919a18.353968 18.353968 0 0 1 0 36.707937zM464.281977 763.194702H416.758965a18.353968 18.353968 0 0 1 0-36.707936h47.523012a18.353968 18.353968 0 0 1 0 36.707936zM413.721384 813.727764h-30.334521a18.353968 18.353968 0 0 1 0-36.707936h30.334521a18.353968 18.353968 0 0 1 0 36.707936zM361.146442 864.292947h-34.381571a18.353968 18.353968 0 0 1 0-36.707937h34.381571a18.353968 18.353968 0 0 1 0 36.707937z" fill="#6E6E96" opacity=".3" p-id="2623"></path><path d="M41.512087 934.620764h204.068595s-78.114488 159.450098-204.068595 0z" fill="#6E6E96" opacity=".15" p-id="2624"></path><path d="M290.791094 78.210847h675.403083c17.596867-32.151564 45.320536-58.260083 89.122281-58.260084H411.495965S334.524011 11.953022 290.791094 78.210847z" fill="#FFFFFF" opacity=".51" p-id="2625"></path><path d="M797.741458 1023.798106H136.558111a18.353968 18.353968 0 0 1 0-36.707936c0.192717 0 26.856444-0.390022 52.529057-15.082373 33.005023-18.881645 49.739254-52.726362 49.739253-100.588922V197.254684c0-76.875595 22.488199-132.648716 66.835975-165.763863C340.851542 5.212527 379.50041 1.289366 399.405288 1.289366c4.19847 0 7.208521 0.18354 8.768609 0.302841H1051.177638a18.353968 18.353968 0 0 1 0 36.707936c-93.29322 0-100.795404 152.452648-101.075302 159.289501v673.824642c0.004588 84.024466-68.345589 152.38382-152.360878 152.38382z m-567.197265-36.707936h567.197265c63.770862 0 115.65753-51.891256 115.65753-115.671295V197.254684l0.009177-0.546031c0.05965-1.922578 1.592207-47.71114 17.936416-94.192564 9.319227-26.498541 21.570501-47.981861 36.469334-64.211358H407.380088c-0.6378 0-1.271012-0.032119-1.908813-0.096358-0.004588 0-2.257538-0.206482-6.065987-0.206482-37.24479 0-123.875519 15.51828-123.875519 159.257381v674.159603c0.009177 57.558044-20.079241 93.380401-44.985576 115.671295z" fill="#6E6E96" p-id="2626"></path></svg>